<svg width="14" height="14" viewBox="0 0 14 14" fill="none" xmlns="http://www.w3.org/2000/svg">
<path d="M13.4641 14H0.535828V2.57273C0.535828 1.63921 1.29253 0.882507 2.22605 0.882507H11.7737C12.7072 0.882507 13.464 1.63921 13.464 2.57273L13.4641 14Z" fill="url(#paint0_linear_8_262)"/>
<path d="M13.4641 14H0.535828V2.57273C0.535828 1.63921 1.29253 0.882507 2.22605 0.882507H11.7737C12.7072 0.882507 13.464 1.63921 13.464 2.57273L13.4641 14Z" fill="url(#paint1_linear_8_262)"/>
<path d="M0.535828 14V2.57273C0.535828 1.63921 1.29253 0.882507 2.22605 0.882507H11.7737C12.7072 0.882507 13.464 1.63921 13.464 2.57273V14H0.535828Z" fill="url(#paint2_linear_8_262)"/>
<path d="M11.7738 0.882507H6.99994V14H13.4641V2.57273C13.4641 1.63921 12.7074 0.882507 11.7738 0.882507Z" fill="url(#paint3_linear_8_262)"/>
<defs>
<linearGradient id="paint0_linear_8_262" x1="2.86806" y1="3.80442" x2="10.9814" y2="11.9177" gradientUnits="userSpaceOnUse">
<stop stop-color="#99E6FC"/>
<stop offset="1" stop-color="#01C0FA"/>
</linearGradient>
<linearGradient id="paint1_linear_8_262" x1="3.61423" y1="7.44125" x2="-0.987247" y2="7.44125" gradientUnits="userSpaceOnUse">
<stop stop-color="#017BAE" stop-opacity="0"/>
<stop offset="1" stop-color="#017BAE"/>
</linearGradient>
<linearGradient id="paint2_linear_8_262" x1="6.99995" y1="4.00596" x2="6.99995" y2="-0.662779" gradientUnits="userSpaceOnUse">
<stop stop-color="#017BAE" stop-opacity="0"/>
<stop offset="1" stop-color="#017BAE"/>
</linearGradient>
<linearGradient id="paint3_linear_8_262" x1="8.53908" y1="7.44125" x2="6.23846" y2="7.44125" gradientUnits="userSpaceOnUse">
<stop stop-color="#017BAE" stop-opacity="0"/>
<stop offset="1" stop-color="#017BAE"/>
</linearGradient>
</defs>
</svg>
